<?xml version="1.0" encoding="iso-8859-1"?>
<!-- Generator: Adobe Illustrator 19.0.0, SVG Export Plug-In . SVG Version: 6.00 Build 0)  -->
<svg version="1.1" id="Capa_1" xmlns="http://www.w3.org/2000/svg" xmlns:xlink="http://www.w3.org/1999/xlink" x="0px" y="0px"
	 viewBox="0 0 512 512" style="enable-background:new 0 0 512 512;" xml:space="preserve">
<circle style="fill:#FF68A5;" cx="256" cy="256" r="256"/>
<path style="fill:#FF0099;" d="M512,256c0-7.498-0.342-14.915-0.973-22.249l-110.36-110.36l-35.749,26.214l-37.609-38.13
	l-35.794,63.944l-36-37L111.333,373.455L249.8,511.922c2.061,0.049,4.127,0.078,6.2,0.078C397.385,512,512,397.385,512,256z"/>
<polygon style="fill:#6283A3;" points="183.424,138.419 172.113,185.775 255.515,174.464 255.515,138.419 "/>
<polygon style="fill:#9ABADB;" points="183.424,138.419 111.333,138.419 111.333,174.464 183.424,185.775 "/>
<polygon style="fill:#6283A3;" points="364.918,111.475 364.918,171.746 346.114,183.663 334.802,204.992 346.114,400.706 
	367.897,400.706 367.897,218.105 400.667,197.339 400.667,123.391 "/>
<polygon style="fill:#9ABADB;" points="327.309,171.746 327.309,111.475 291.56,123.391 291.56,197.339 324.33,218.105 
	324.33,400.706 346.114,400.706 346.114,183.663 "/>
<polygon style="fill:#6283A3;" points="255.515,301.364 172.113,290.053 183.424,373.455 255.515,373.455 "/>
<polygon style="fill:#9ABADB;" points="111.333,301.364 111.333,373.455 183.424,373.455 183.424,290.053 "/>
<polygon style="fill:#294B6E;" points="195.439,345.886 195.439,328.933 183.424,328.933 177.769,337.41 183.424,345.886 "/>
<rect x="171.41" y="328.93" style="fill:#6283A3;" width="12.02" height="16.953"/>
<polygon style="fill:#294B6E;" points="183.424,301.364 255.515,301.364 255.515,174.464 183.424,174.464 172.113,237.914 "/>
<rect x="111.33" y="174.46" style="fill:#6283A3;" width="72.09" height="126.9"/>
<g>
</g>
<g>
</g>
<g>
</g>
<g>
</g>
<g>
</g>
<g>
</g>
<g>
</g>
<g>
</g>
<g>
</g>
<g>
</g>
<g>
</g>
<g>
</g>
<g>
</g>
<g>
</g>
<g>
</g>
</svg>
