<svg id="Capa_1" enable-background="new 0 0 497 497" height="512" viewBox="0 0 497 497" width="512" xmlns="http://www.w3.org/2000/svg"><g><g><g><path d="m480.484 448h-463.968c-9.121 0-16.516-7.395-16.516-16.516v-365.968c0-9.121 7.395-16.516 16.516-16.516h463.967c9.122 0 16.517 7.395 16.517 16.516v365.967c0 9.122-7.395 16.517-16.516 16.517z" fill="#e592b8"/></g></g><g><g><path d="m480.484 49h-30c9.121 0 16.516 7.395 16.516 16.516v365.967c0 9.122-7.395 16.516-16.516 16.516h30c9.122 0 16.516-7.395 16.516-16.516v-365.967c0-9.121-7.395-16.516-16.516-16.516z" fill="#e175a5"/></g></g><g><g><path d="m417.463 352.594h-337.926c-5.337 0-9.663-4.326-9.663-9.663v-33.017c0-5.337 4.326-9.663 9.663-9.663h337.927c5.337 0 9.663 4.326 9.663 9.663v33.017c0 5.336-4.327 9.663-9.664 9.663z" fill="#e3e0e4"/></g></g><g><g><path d="m246.865 300.251h-167.328c-5.337 0-9.663 4.326-9.663 9.663v33.017c0 5.337 4.326 9.663 9.663 9.663h167.329v-52.343z" fill="#de5791"/></g></g><g fill="#f7f7f7"><path d="m145.474 119.745h-14.122c-2.541 0-4.457 1.593-4.457 3.707v43.389c0 2.593 3.018 3.775 5.821 3.775 2.804 0 5.821-1.181 5.821-3.775v-14.236h6.254c11.145 0 17.283-5.799 17.283-16.327v-.341c0-10.441-5.895-16.192-16.6-16.192zm-.683 23.673h-6.254v-13.395h6.254c3.743 0 5.641 2.127 5.641 6.322v.75c0 4.196-1.898 6.323-5.641 6.323z"/><path d="m205.131 148.944c5.195-2.248 8.046-7.23 8.046-14.099 0-10.019-5.815-15.1-17.283-15.1h-14.122c-2.152 0-3.774 1.593-3.774 3.707v43.389c0 2.593 3.018 3.775 5.821 3.775 2.804 0 5.821-1.181 5.821-3.775v-15.941h3.698l9.209 17.879c.758 1.449 2.127 2.247 3.854 2.247 3.492 0 7.186-3.098 7.186-6.026 0-.324-.055-.95-.403-1.47zm-3.597-13.076c0 4.097-1.687 5.845-5.641 5.845h-6.254v-11.689h6.254c3.954 0 5.641 1.747 5.641 5.844z"/><path d="m259.551 130.024c2.182 0 3.706-2.141 3.706-5.207 0-2.442-1.16-5.071-3.706-5.071h-24.287c-2.476 0-5.14 1.181-5.14 3.775v43.321c0 2.593 2.664 3.775 5.14 3.775h24.287c2.546 0 3.706-2.629 3.706-5.071 0-3.066-1.524-5.208-3.706-5.208h-17.784v-10.598h9.733c2.434 0 3.707-2.276 3.707-4.525 0-2.316-1.273-4.661-3.707-4.661h-9.733v-10.53z"/><path d="m296.559 138.285c-3.853-1.698-6.896-3.04-6.896-5.35 0-1.737 1.661-3.594 6.322-3.594 3.243 0 4.986.903 6.386 1.629.997.517 1.859.963 2.96.963 3.343 0 4.73-3.969 4.73-6.094 0-6.19-11.726-6.504-14.076-6.504-8.287 0-17.965 3.829-17.965 14.622 0 9.605 7.612 13.142 13.729 15.983 4.237 1.968 7.897 3.669 7.897 6.803 0 2.954-3.295 4.003-6.117 4.003-3.539 0-5.646-1.623-7.505-3.054-1.39-1.07-2.59-1.994-4.092-1.994-2.981 0-5.14 3.722-5.14 6.231 0 4.991 7.917 9.369 16.941 9.369 10.829 0 17.556-5.995 17.556-15.645 0-10.874-8.514-14.627-14.73-17.368z"/><path d="m342.176 160.747c-3.539 0-5.646-1.623-7.505-3.054-1.39-1.07-2.59-1.994-4.092-1.994-2.981 0-5.14 3.722-5.14 6.231 0 4.991 7.917 9.369 16.941 9.369 10.829 0 17.556-5.995 17.556-15.645 0-10.873-8.514-14.627-14.73-17.367-3.853-1.698-6.895-3.04-6.895-5.35 0-1.737 1.661-3.594 6.322-3.594 3.243 0 4.986.903 6.386 1.629.997.517 1.859.963 2.959.963 3.343 0 4.731-3.969 4.731-6.094 0-6.19-11.726-6.504-14.076-6.504-8.287 0-17.965 3.829-17.965 14.622 0 9.605 7.612 13.142 13.729 15.983 4.237 1.968 7.897 3.669 7.897 6.803-.001 2.953-3.296 4.002-6.118 4.002z"/><path d="m144.273 207.198c-3.852-1.698-6.895-3.04-6.895-5.35 0-1.737 1.661-3.594 6.322-3.594 3.243 0 4.986.903 6.386 1.629.998.517 1.859.963 2.96.963 3.343 0 4.73-3.969 4.73-6.094 0-6.19-11.726-6.503-14.076-6.503-8.287 0-17.965 3.829-17.965 14.622 0 9.605 7.612 13.142 13.729 15.984 4.237 1.968 7.897 3.669 7.897 6.802 0 2.954-3.295 4.003-6.117 4.003-3.538 0-5.646-1.623-7.505-3.054-1.39-1.07-2.59-1.994-4.092-1.994-2.981 0-5.14 3.722-5.14 6.23 0 4.991 7.916 9.369 16.941 9.369 10.829 0 17.556-5.995 17.556-15.645 0-10.874-8.514-14.627-14.731-17.368z"/><path d="m205.581 188.659h-29.472c-2.56 0-3.706 2.615-3.706 5.207 0 3.146 1.524 5.344 3.706 5.344h8.915v36.545c0 2.594 3.018 3.775 5.821 3.775 2.804 0 5.821-1.181 5.821-3.775v-36.545h8.914c2.183 0 3.707-2.197 3.707-5.344.001-2.592-1.145-5.207-3.706-5.207z"/><path d="m244.814 192.147c-.745-2.368-3.664-3.897-7.436-3.897s-6.691 1.53-7.437 3.902l-12.701 41.657c-.072.292-.146.593-.146.855 0 2.971 4.337 4.866 7.322 4.866 2.72 0 3.654-1.273 3.961-2.347l2.22-8.159h13.63l2.221 8.165c.305 1.068 1.24 2.341 3.96 2.341 2.985 0 7.322-1.896 7.322-4.866 0-.266-.077-.574-.159-.897zm-3.11 27.689h-8.652l4.326-15.881z"/><path d="m300.105 217.857c5.195-2.248 8.046-7.23 8.046-14.099 0-10.019-5.815-15.1-17.283-15.1h-14.122c-2.152 0-3.774 1.594-3.774 3.707v43.389c0 2.594 3.018 3.775 5.821 3.775 2.804 0 5.821-1.181 5.821-3.775v-15.941h3.698l9.208 17.879c.758 1.449 2.127 2.247 3.854 2.247 3.492 0 7.185-3.098 7.185-6.026 0-.324-.055-.95-.403-1.47zm-3.596-13.076c0 4.097-1.687 5.845-5.641 5.845h-6.254v-11.689h6.254c3.954 0 5.641 1.748 5.641 5.844z"/><path d="m354.593 188.659h-29.472c-2.56 0-3.706 2.615-3.706 5.207 0 3.146 1.524 5.344 3.706 5.344h8.915v36.545c0 2.594 3.018 3.775 5.821 3.775s5.821-1.181 5.821-3.775v-36.545h8.914c2.183 0 3.707-2.197 3.707-5.344.001-2.592-1.146-5.207-3.706-5.207z"/></g></g></svg>